<svg width="1205" height="1179" viewBox="0 0 1205 1179" fill="none" xmlns="http://www.w3.org/2000/svg">
<g clip-path="url(#clip0_67_3634)">
<path style="mix-blend-mode:color-dodge" d="M-274.489 2422.4C-44.1282 2733.92 562.413 2676.02 1080.26 2293.08C1598.11 1910.14 1831.16 1347.17 1600.8 1035.66C1370.44 724.141 763.894 782.04 246.048 1164.98C-271.797 1547.92 -504.85 2110.88 -274.489 2422.4Z" fill="url(#paint0_radial_67_3634)"/>
<g opacity="0.4">
<path opacity="0.4" fill-rule="evenodd" clip-rule="evenodd" d="M218.679 266.223C218.679 266.223 453.571 167.614 700.582 399.414L218.679 266.223Z" fill="url(#paint1_radial_67_3634)"/>
<path opacity="0.4" fill-rule="evenodd" clip-rule="evenodd" d="M251.645 755.764C251.645 755.764 -289.914 558.592 11.9306 358.734C11.9306 358.734 40.9876 593.065 251.645 755.764Z" fill="url(#paint2_radial_67_3634)"/>
<path opacity="0.4" fill-rule="evenodd" clip-rule="evenodd" d="M-22.5012 423.278C-22.5012 423.278 -25.1741 510.251 84.8291 607.092C194.832 703.934 541.178 787.468 737.001 679.845C903.854 588.141 729.885 441.54 632.261 379.78C564.955 337.21 374.393 254.061 271.862 317.873C192.895 367.012 336.525 486.918 374.632 514.341C412.738 541.764 616.671 622.124 707.903 579.005C774.587 547.489 651.708 444.121 583.4 411.071C509.216 375.171 397.022 364.984 406.746 416.226C409.886 432.787 488.247 503.889 574.195 505.861C660.143 507.833 627.991 464.433 608.045 448.445C588.099 432.457 550.045 423.077 507.926 431.589C507.926 431.589 547.239 478.965 598.195 451.408C607.533 470.932 543.43 489.705 486.975 465.577C437.903 444.606 429.958 419.638 452.38 407.6C474.802 395.562 577.387 405.068 639.049 459.207C700.711 513.345 661.157 543.908 621.249 551.22C581.34 558.533 437.386 534.354 351.582 453.814C265.778 373.275 321.776 353.977 403.805 353.976C485.833 353.975 575.058 389.574 616.734 416.656C658.41 443.738 805.121 549.689 713.018 621.465C620.914 693.241 299.569 605.882 164.057 505.45C55.7862 425.215 23.1671 281.372 301.911 273.069C584.358 264.655 908.255 514.879 815.867 665.112C732.25 801.07 431.751 817.955 274.209 763.906C115.965 709.619 53.629 629.92 17.5856 586.905C-18.4579 543.891 -37.3327 460.085 -22.5012 423.278Z" fill="url(#paint3_radial_67_3634)"/>
<path opacity="0.4" fill-rule="evenodd" clip-rule="evenodd" d="M102.171 295.852L83.3744 297.7C83.3744 297.7 -73.3501 366.779 23.9094 518.353C121.169 669.927 361.429 688.754 418.37 675.369C418.37 675.369 232.884 627.701 107.088 505.194C-18.7087 382.687 102.171 295.852 102.171 295.852Z" fill="url(#paint4_radial_67_3634)"/>
<path opacity="0.4" fill-rule="evenodd" clip-rule="evenodd" d="M330.817 782.285C330.817 782.285 507.76 837.821 650.718 795.085C793.676 752.349 807.631 677.194 807.631 677.194C807.631 677.194 734.397 849.211 330.817 782.285Z" fill="url(#paint5_radial_67_3634)"/>
<path style="mix-blend-mode:multiply" opacity="0.5" fill-rule="evenodd" clip-rule="evenodd" d="M254.571 383.568C254.571 383.568 225.592 321.391 262.026 291.977C298.46 262.564 459.93 279.194 587.425 343.047C714.92 406.899 827.639 515.091 802.328 612.031C802.328 612.031 815.419 523.503 696.837 433.902C578.255 344.301 405.112 284.757 311.285 310.332C235.703 330.936 254.571 383.568 254.571 383.568Z" fill="url(#paint6_linear_67_3634)"/>
<path style="mix-blend-mode:multiply" opacity="0.5" fill-rule="evenodd" clip-rule="evenodd" d="M439.587 452.241C439.587 452.241 388.393 418.345 384.729 386.443C381.065 354.541 508.038 355.926 612.906 418.287C694.834 466.997 770.735 547.159 707.901 579.002C707.901 579.002 772.472 540.932 613.616 434.119C500.276 357.915 357.656 379.368 439.587 452.241Z" fill="url(#paint7_linear_67_3634)"/>
<path style="mix-blend-mode:multiply" opacity="0.5" fill-rule="evenodd" clip-rule="evenodd" d="M550.667 458.172C550.667 458.172 500.287 449.076 475.319 418.36C452.48 390.263 560.289 409.703 610.378 439.685C660.466 469.668 662.595 508.3 592.969 505.472C592.969 505.472 647.885 495.285 613.916 461.373C579.947 427.461 530.764 428.759 525.861 435.792C520.959 442.826 550.667 458.172 550.667 458.172Z" fill="url(#paint8_linear_67_3634)"/>
<path style="mix-blend-mode:multiply" opacity="0.5" fill-rule="evenodd" clip-rule="evenodd" d="M741.453 554.097C741.453 554.097 762.814 625.404 550.202 593.488C303.367 556.454 49.7768 453.79 96.9871 342.106C96.9871 342.106 -11.5755 411.464 172.476 541.953C349.648 667.595 586.235 691.672 683.338 657.953C780.442 624.234 741.453 554.097 741.453 554.097Z" fill="url(#paint9_linear_67_3634)"/>
<path style="mix-blend-mode:multiply" opacity="0.5" fill-rule="evenodd" clip-rule="evenodd" d="M83.3744 297.7C83.3744 297.7 1.75023 341.917 45.8891 459.248C83.3373 558.866 226.356 660.833 418.371 675.361C418.371 675.361 262.82 705.416 115.911 630.173C-30.9981 554.93 -93.7699 399.757 83.3744 297.7Z" fill="url(#paint10_linear_67_3634)"/>
<path style="mix-blend-mode:multiply" opacity="0.5" fill-rule="evenodd" clip-rule="evenodd" d="M17.5908 586.904C17.5908 586.904 252.472 754.065 536.365 751.504C820.258 748.943 831.866 611.833 831.866 611.833C831.866 611.833 836.949 742.738 626.907 791.982C416.865 841.226 117.374 736.214 17.5908 586.904Z" fill="url(#paint11_linear_67_3634)"/>
<path style="mix-blend-mode:multiply" opacity="0.5" fill-rule="evenodd" clip-rule="evenodd" d="M115.796 693.678C115.796 693.678 -112.406 539.198 -31.124 392.306C-31.1273 392.302 -207.087 521.569 115.796 693.678Z" fill="url(#paint12_linear_67_3634)"/>
<path style="mix-blend-mode:multiply" opacity="0.5" fill-rule="evenodd" clip-rule="evenodd" d="M308.709 387.982C308.709 387.982 384.984 464.91 524.108 507.646C627.382 539.354 666.584 492.504 666.584 492.504C666.584 492.504 705.435 571.03 573.184 560.108C440.933 549.186 301.448 443.861 308.709 387.982Z" fill="url(#paint13_linear_67_3634)"/>
<path style="mix-blend-mode:multiply" opacity="0.5" fill-rule="evenodd" clip-rule="evenodd" d="M440.571 422.576C440.571 422.576 558.383 488.887 598.945 456.92C598.945 456.92 598.968 491.134 530.433 484.274C462.703 477.493 431.337 429.03 440.571 422.576Z" fill="url(#paint14_linear_67_3634)"/>
<path style="mix-blend-mode:multiply" opacity="0.5" fill-rule="evenodd" clip-rule="evenodd" d="M218.679 266.223C218.679 266.223 470.839 188.118 700.582 399.414C700.582 399.414 504.9 239.765 218.679 266.223Z" fill="url(#paint15_linear_67_3634)"/>
<path opacity="0.4" fill-rule="evenodd" clip-rule="evenodd" d="M734.84 534.061C734.84 534.061 796.716 616.736 593.1 600.873C389.483 585.01 199.424 421.45 179.9 349.049C160.375 276.648 311.012 272.891 311.012 272.891C311.012 272.891 190.787 275.564 189.528 342.278C188.269 408.993 444.592 576.303 595.049 591.865C745.506 607.426 743.042 549.28 734.84 534.061Z" fill="url(#paint16_radial_67_3634)"/>
<path opacity="0.4" fill-rule="evenodd" clip-rule="evenodd" d="M598.945 456.919C598.945 456.919 565.205 471.005 516.722 453.788C468.238 436.571 451.724 412.87 456.861 405.823C461.997 398.776 509.8 404.977 509.8 404.977C509.8 404.977 473.374 399.617 473.967 414.572C474.559 429.527 538.424 470.362 598.945 456.919Z" fill="url(#paint17_radial_67_3634)"/>
<path opacity="0.4" fill-rule="evenodd" clip-rule="evenodd" d="M666.584 492.505C666.584 492.505 622.864 552.456 457.727 483.008C292.59 413.561 314.597 361.28 392.413 354.114C470.23 346.948 550.886 384.233 550.886 384.233C550.886 384.233 438.232 342.72 385.879 364.269C333.526 385.819 415.498 465.104 500.067 491.827C584.635 518.55 624.136 523.12 666.584 492.505Z" fill="url(#paint18_radial_67_3634)"/>
<path opacity="0.4" fill-rule="evenodd" clip-rule="evenodd" d="M418.37 675.368C418.37 675.368 257.218 672.832 120.993 560.332C-15.2318 447.832 47.0113 336.445 47.0113 336.445C47.0113 336.445 -9.97112 432.087 121.61 548.153C253.192 664.219 418.37 675.368 418.37 675.368Z" fill="url(#paint19_linear_67_3634)"/>
<path opacity="0.4" fill-rule="evenodd" clip-rule="evenodd" d="M211.469 687.181C211.469 687.181 457.213 793.686 682.111 734.457C907.01 675.228 811.897 534.663 811.897 534.663C811.897 534.663 893.203 673.82 652.289 728.183C429.389 778.469 211.469 687.181 211.469 687.181Z" fill="url(#paint20_linear_67_3634)"/>
<path opacity="0.4" fill-rule="evenodd" clip-rule="evenodd" d="M384.608 311.963C384.608 311.963 445.02 303.701 508.032 328.551C571.044 353.401 593.224 375.888 593.224 375.888C593.224 375.888 487.498 337.305 384.608 311.963Z" fill="url(#paint21_radial_67_3634)"/>
<path opacity="0.4" fill-rule="evenodd" clip-rule="evenodd" d="M573.057 380.682C573.057 380.682 642.215 375.25 655.566 425.529C655.566 425.529 621.279 401.952 573.057 380.682Z" fill="url(#paint22_radial_67_3634)"/>
<path opacity="0.4" fill-rule="evenodd" clip-rule="evenodd" d="M419.602 701.913C419.602 701.913 517.496 749.496 651.403 695.769C651.407 695.773 520.934 689.786 419.602 701.913Z" fill="url(#paint23_radial_67_3634)"/>
<path style="mix-blend-mode:multiply" opacity="0.5" fill-rule="evenodd" clip-rule="evenodd" d="M573.057 380.682C573.057 380.682 633.725 384.479 655.566 425.529C655.566 425.529 615.263 409.46 573.057 380.682Z" fill="url(#paint24_linear_67_3634)"/>
<path style="mix-blend-mode:multiply" opacity="0.5" fill-rule="evenodd" clip-rule="evenodd" d="M419.602 701.913C419.602 701.913 510.682 726.048 651.403 695.769C651.407 695.773 541.48 760.889 419.602 701.913Z" fill="url(#paint25_linear_67_3634)"/>
<path opacity="0.4" fill-rule="evenodd" clip-rule="evenodd" d="M463.756 708.758C463.756 708.758 577.652 712.361 651.421 695.763C651.406 695.773 552.463 721.407 463.756 708.758Z" fill="url(#paint26_radial_67_3634)"/>
<path opacity="0.4" fill-rule="evenodd" clip-rule="evenodd" d="M595.431 384.55C595.431 384.55 627.122 387.534 645.161 411.199C645.161 411.199 633.098 396.695 595.431 384.55Z" fill="url(#paint27_radial_67_3634)"/>
<path opacity="0.4" fill-rule="evenodd" clip-rule="evenodd" d="M127.352 287.824C127.352 287.824 131.487 249.666 206.083 267.902C206.107 267.884 166.288 273.698 127.352 287.824Z" fill="url(#paint28_radial_67_3634)"/>
<path style="mix-blend-mode:multiply" opacity="0.5" fill-rule="evenodd" clip-rule="evenodd" d="M127.352 287.823C127.352 287.823 143.295 258.628 206.083 267.901C206.107 267.883 176.042 280.522 127.352 287.823Z" fill="url(#paint29_linear_67_3634)"/>
<path opacity="0.4" fill-rule="evenodd" clip-rule="evenodd" d="M136.805 278.269C136.805 278.269 146.579 263.498 183.715 266.069C183.705 266.076 160.76 265.033 136.805 278.269Z" fill="url(#paint30_radial_67_3634)"/>
<path opacity="0.4" fill-rule="evenodd" clip-rule="evenodd" d="M632.722 583.977C632.722 583.977 588.689 541.334 536.216 570.078C536.216 570.078 555.067 576.918 587.238 581.881C599.925 583.845 621.411 584.424 632.722 583.977Z" fill="url(#paint31_radial_67_3634)"/>
<path style="mix-blend-mode:multiply" opacity="0.5" fill-rule="evenodd" clip-rule="evenodd" d="M632.722 583.977C632.722 583.977 584.765 552.109 536.216 570.078C536.216 570.078 582.161 589.559 632.722 583.977Z" fill="url(#paint32_linear_67_3634)"/>
<path opacity="0.4" fill-rule="evenodd" clip-rule="evenodd" d="M613.083 574.063C613.083 574.063 587.267 558.142 555.211 565.398C555.211 565.398 575.588 561.54 613.083 574.063Z" fill="url(#paint33_radial_67_3634)"/>
<path opacity="0.4" fill-rule="evenodd" clip-rule="evenodd" d="M480.176 324.076C480.176 324.076 490.184 323.126 515.061 332.789C539.938 342.452 574.207 365.614 574.207 365.614C574.207 365.614 531.829 341.58 480.176 324.076Z" fill="url(#paint34_radial_67_3634)"/>
<path style="mix-blend-mode:multiply" opacity="0.5" fill-rule="evenodd" clip-rule="evenodd" d="M384.608 311.963C384.608 311.963 449.126 311.253 495.959 329.317C542.793 347.38 593.218 375.879 593.218 375.879C593.218 375.879 452.487 343.294 384.608 311.963Z" fill="url(#paint35_linear_67_3634)"/>
<path opacity="0.4" fill-rule="evenodd" clip-rule="evenodd" d="M311.93 692.994C311.93 692.994 336.881 713.002 376.522 698.381C376.517 698.384 338.436 691.047 311.93 692.994Z" fill="url(#paint36_radial_67_3634)"/>
<path opacity="0.4" fill-rule="evenodd" clip-rule="evenodd" d="M383.714 706.618C383.714 706.618 393.688 724.104 421.983 711.47L383.714 706.618Z" fill="url(#paint37_radial_67_3634)"/>
<path opacity="0.4" fill-rule="evenodd" clip-rule="evenodd" d="M789.147 608.62C789.147 608.62 817.931 575.578 777.419 544.661L789.147 608.62Z" fill="url(#paint38_radial_67_3634)"/>
<path opacity="0.4" fill-rule="evenodd" clip-rule="evenodd" d="M293.258 335.701C293.258 335.701 293.205 308.342 350.898 313.406C350.902 313.41 315.87 323.78 293.258 335.701Z" fill="url(#paint39_radial_67_3634)"/>
<path opacity="0.4" fill-rule="evenodd" clip-rule="evenodd" d="M705.247 681.394L745.067 659.277C745.067 659.277 750.957 669.891 705.247 681.394Z" fill="url(#paint40_radial_67_3634)"/>
<path opacity="0.4" fill-rule="evenodd" clip-rule="evenodd" d="M753.125 658.129L760.113 652.867C760.113 652.867 767.396 655.179 753.125 658.129Z" fill="url(#paint41_radial_67_3634)"/>
<path opacity="0.4" fill-rule="evenodd" clip-rule="evenodd" d="M291.764 378.081C291.764 378.081 287.054 356.599 332.75 354.223C332.753 354.228 304.93 364.59 291.764 378.081Z" fill="url(#paint42_radial_67_3634)"/>
<path opacity="0.4" fill-rule="evenodd" clip-rule="evenodd" d="M293.777 394.355C293.777 394.355 284.84 388.216 298.184 383.234L293.777 394.355Z" fill="url(#paint43_radial_67_3634)"/>
<path opacity="0.4" fill-rule="evenodd" clip-rule="evenodd" d="M83.6913 343.348C83.6913 343.348 60.5523 324.211 97.4124 317.924L83.6913 343.348Z" fill="url(#paint44_radial_67_3634)"/>
<path opacity="0.4" fill-rule="evenodd" clip-rule="evenodd" d="M105.904 312.423L118.289 305.325C118.289 305.325 102.122 305.28 105.904 312.423Z" fill="url(#paint45_radial_67_3634)"/>
<path opacity="0.4" fill-rule="evenodd" clip-rule="evenodd" d="M779.591 537.834C779.591 537.834 791.462 527.698 765.895 513.506L779.591 537.834Z" fill="url(#paint46_radial_67_3634)"/>
<path opacity="0.4" fill-rule="evenodd" clip-rule="evenodd" d="M445.805 536.893C445.805 536.893 466.162 535.966 485.849 553.062C485.847 553.05 468.009 549.507 445.805 536.893Z" fill="url(#paint47_radial_67_3634)"/>
<path opacity="0.4" fill-rule="evenodd" clip-rule="evenodd" d="M80.297 465.309C80.297 465.309 63.0553 446.391 67.6866 437.191L80.297 465.309Z" fill="url(#paint48_radial_67_3634)"/>
<path opacity="0.4" fill-rule="evenodd" clip-rule="evenodd" d="M108.106 494.687C108.106 494.687 88.3498 483.155 95.1179 477.223L108.106 494.687Z" fill="url(#paint49_radial_67_3634)"/>
</g>
<path style="mix-blend-mode:screen" d="M207.061 725.269C478.907 856.498 831.451 840.525 994.49 689.594C1157.53 538.662 1069.32 309.926 797.478 178.697C525.633 47.4683 173.089 63.4408 10.0499 214.373C-152.989 365.305 -64.7843 594.041 207.061 725.269Z" fill="url(#paint50_radial_67_3634)"/>
<path style="mix-blend-mode:screen" d="M371.225 611.657C552.216 699.205 770.613 703.796 859.028 621.912C947.444 540.028 872.396 402.676 691.405 315.128C510.413 227.581 292.016 222.99 203.601 304.874C115.186 386.758 190.233 524.109 371.225 611.657Z" fill="url(#paint51_radial_67_3634)"/>
<g clip-path="url(#clip1_67_3634)">
<path style="mix-blend-mode:color-dodge" d="M121.868 283.586C121.685 286.895 87.7287 287.712 46.0111 285.411C4.2936 283.11 -29.3669 278.564 -29.1844 275.255C-29.0019 271.946 4.95426 271.132 46.6718 273.433C88.3893 275.734 122.05 280.277 121.868 283.586Z" fill="url(#paint52_radial_67_3634)"/>
<path style="mix-blend-mode:color-dodge" d="M42.0727 279.185C38.8534 337.551 38.1602 384.972 40.5243 385.102C42.8884 385.233 47.4146 338.023 50.6339 279.657C53.8532 221.291 54.5464 173.87 52.1823 173.74C49.8182 173.609 45.292 220.819 42.0727 279.185Z" fill="url(#paint53_radial_67_3634)"/>
<path style="mix-blend-mode:color-dodge" d="M46.9373 365.322C43.6706 365.475 40.7564 327.146 40.4276 279.697C40.0987 232.248 42.4799 193.671 45.7466 193.518C49.0133 193.366 51.9242 231.695 52.253 279.144C52.5819 326.593 50.2039 365.169 46.9373 365.322Z" fill="url(#paint54_radial_67_3634)"/>
<path style="mix-blend-mode:color-dodge" d="M46.3031 275.266C-5.10593 277.436 -46.7638 281.062 -46.7425 283.364C-46.7212 285.666 -5.02866 285.772 46.3804 283.602C97.7894 281.431 139.447 277.805 139.426 275.503C139.405 273.201 97.7121 273.095 46.3031 275.266Z" fill="url(#paint55_radial_67_3634)"/>
</g>
<path d="M860.761 293.528C860.856 289.515 862.014 285.415 861.04 281.46C860.221 278.137 857.927 275.469 855.487 273.783C852.638 271.816 849.28 272.1 846.398 270.317C845.028 269.47 844.013 267.996 842.765 266.939C841.49 265.861 840.151 265.115 838.625 264.732C836.034 264.078 833.133 264.732 830.76 266.052C829.38 266.817 828.038 267.671 826.605 268.298C825.188 268.917 823.677 269.174 822.254 269.78C819.918 270.774 817.879 272.685 816.349 275.002C815.651 276.06 815.51 277.48 815.357 278.769C815.327 279.017 815.288 279.261 815.238 279.501C813.722 282.233 811.571 284.344 809.999 287.089C808.128 290.35 807.828 294.454 808.155 298.287C808.491 302.215 810.736 305.676 812.928 308.46C814.125 309.981 815.19 311.622 816.459 313.064C817.663 314.431 818.278 316.349 819.163 317.996C820.87 321.169 823.68 322.049 826.638 321.108C828.174 320.619 829.618 319.801 831.126 319.215C833.163 318.425 835.174 318.766 837.217 319.297C840.751 320.213 844.1 320.274 847.636 319.303C850.519 318.512 853.61 317.329 856.11 315.39C862.083 310.761 860.593 300.723 860.761 293.528Z" fill="url(#paint56_radial_67_3634)"/>
<g style="mix-blend-mode:multiply" opacity="0.6">
<path d="M860.761 293.528C860.856 289.515 862.014 285.415 861.04 281.46C860.221 278.137 857.927 275.469 855.487 273.783C852.638 271.816 849.28 272.1 846.398 270.317C845.028 269.47 844.013 267.996 842.765 266.939C841.49 265.861 840.151 265.115 838.625 264.732C836.034 264.078 833.133 264.732 830.76 266.052C829.38 266.817 828.038 267.671 826.605 268.298C825.188 268.917 823.677 269.174 822.254 269.78C819.918 270.774 817.879 272.685 816.349 275.002C815.651 276.06 815.51 277.48 815.357 278.769C815.327 279.017 815.288 279.261 815.238 279.501C813.722 282.233 811.571 284.344 809.999 287.089C808.128 290.35 807.828 294.454 808.155 298.287C808.491 302.215 810.736 305.676 812.928 308.46C814.125 309.981 815.19 311.622 816.459 313.064C817.663 314.431 818.278 316.349 819.163 317.996C820.87 321.169 823.68 322.049 826.638 321.108C828.174 320.619 829.618 319.801 831.126 319.215C833.163 318.425 835.174 318.766 837.217 319.297C840.751 320.213 844.1 320.274 847.636 319.303C850.519 318.512 853.61 317.329 856.11 315.39C862.083 310.761 860.593 300.723 860.761 293.528ZM849.069 280.486C848.621 281.374 847.77 281.777 847.01 282.175C845.882 282.764 844.994 283.47 844.298 284.733C843.597 286.007 843.061 287.398 842.453 288.737C841.99 289.755 841.512 290.975 840.693 291.66C840.185 292.08 839.608 292.323 839.1 292.728C838.369 293.309 838.337 294.078 838.164 295.001C837.968 296.047 837.482 296.507 836.619 296.734C834.19 297.371 831.851 299.082 830.892 301.92C832.516 301.047 834.261 300.001 836.044 300.695C836.084 300.71 836.119 300.74 836.143 300.78C836.168 300.82 836.181 300.869 836.181 300.919C836.181 300.969 836.168 301.018 836.143 301.058C836.119 301.098 836.084 301.128 836.044 301.143C833.871 301.96 831.765 305.016 831.214 307.635C830.973 308.78 830.916 312.106 829.332 311.956C828.39 311.867 827.578 311.151 826.69 310.818C825.471 310.361 824.132 310.135 822.913 310.746C822.308 311.049 821.69 311.871 821.004 311.746C820.109 311.584 820.069 309.94 819.033 309.979C818.277 310.008 817.587 310.254 816.928 309.645C816.28 309.047 815.748 308.305 815.172 307.611C813.704 305.841 811.972 304.183 810.731 302.169C809.113 299.543 808.736 295.935 809.113 292.772C809.221 291.852 809.401 290.946 809.65 290.067C810.261 287.946 811.455 286.143 812.78 284.596C813.475 283.784 814.344 283.251 815.136 282.597C816.336 281.605 816.166 280.313 816.153 278.747C816.153 278.557 816.376 278.419 816.485 278.583C817.059 279.437 817.243 280.472 817.456 281.505C817.76 279.577 818.12 277.314 819.672 276.411C820.106 276.158 821.047 275.468 821.539 275.711C822.177 276.023 822.583 276.737 823.075 277.299C822.809 276.264 822.464 275.26 822.228 274.211C822.215 274.151 822.222 274.087 822.248 274.034C822.273 273.98 822.315 273.941 822.365 273.924C823.212 273.563 823.527 272.275 824.385 271.995C824.715 271.895 825.056 271.859 825.396 271.886C825.231 271.653 825.053 271.433 824.863 271.229C824.743 271.102 824.824 270.896 824.95 270.839C825.503 270.585 826.114 270.382 826.612 269.982C826.265 269.96 825.919 269.985 825.567 269.994C825.33 270.001 825.327 269.629 825.516 269.536C828.629 267.994 831.446 265.653 834.906 265.422C836.078 265.344 837.569 265.487 838.263 266.801C838.744 267.712 838.291 269.677 837.995 270.587C837.933 270.778 837.657 270.836 837.621 270.587C837.52 269.896 837.477 269.2 837.441 268.503C837.311 269.2 837.151 269.89 836.89 270.545C836.844 270.661 836.71 270.687 836.624 270.628C835.96 270.173 835.299 269.711 834.647 269.233C834.711 269.413 834.771 269.593 834.838 269.773C834.905 269.952 834.748 270.247 834.571 270.091C833.9 269.498 832.09 268.646 831.411 269.66C830.793 270.586 832.034 271.958 832.314 272.793C832.326 272.843 832.323 272.896 832.307 272.944C832.291 272.991 832.262 273.031 832.225 273.057C831.046 273.746 829.281 273.927 828.587 275.398C829.874 275.929 831.459 275.578 832.75 275.313C833.366 275.186 833.98 275.051 834.594 274.908C834.894 274.837 835.314 274.673 835.603 274.878C836.352 275.408 835.755 276.915 835.439 277.526C834.968 278.44 834.466 279.301 834.101 280.235C834.091 280.306 834.087 280.378 834.086 280.45C835.515 279.826 836.303 278.048 837.514 277.014C837.621 276.923 837.763 277.022 837.8 277.155C837.9 277.543 837.894 277.962 837.914 278.365C837.927 278.654 837.929 278.962 837.979 279.244C838.059 279.701 838.394 279.601 838.508 279.206C838.747 278.373 838.808 277.428 839.167 276.649C839.352 276.25 839.641 275.835 840.06 276.065C840.724 276.429 841.092 277.1 841.822 277.2C841.686 276.724 841.443 276.343 841.162 275.942C841.127 275.898 841.108 275.839 841.109 275.778C841.11 275.717 841.13 275.659 841.166 275.616C841.202 275.574 841.251 275.549 841.301 275.549C841.352 275.548 841.401 275.571 841.438 275.613C842.669 276.894 844.062 277.969 845.629 278.557C846.78 278.99 848.006 279.309 849.002 280.166C849.085 280.24 849.128 280.37 849.069 280.486Z" fill="#A998AB"/>
</g>
<g style="mix-blend-mode:color-dodge" opacity="0.6">
<path d="M816.254 281.937C815.359 282.742 814.664 283.789 813.75 284.593C813.003 285.251 812.318 286.004 811.708 286.84C810.289 288.774 809.594 291.142 809.403 293.675C809.199 296.384 809.824 299.018 811.022 301.293C811.683 302.552 812.535 303.584 813.378 304.658C814.042 305.504 814.623 306.467 815.441 307.113C815.502 307.163 815.635 307.01 815.581 306.94C812.826 303.319 810.066 299.659 809.907 294.505C809.821 291.728 810.613 289.179 812.036 287.021C812.653 286.087 813.453 285.328 814.213 284.569C814.994 283.792 815.541 282.785 816.308 282.009C816.367 281.948 816.315 281.882 816.254 281.937Z" fill="#4B5DA7"/>
</g>
<path d="M825.579 270.024C825.385 270.105 824.753 270.024 824.313 270.132C824.173 269.778 823.468 270.082 823.236 270.185C821.946 270.755 820.683 271.323 819.517 272.21C818.998 272.6 818.525 273.072 818.111 273.613C817.444 274.292 816.728 275.187 816.704 276.041C816.704 276.043 816.704 276.045 816.704 276.047C816.682 276.232 816.704 276.434 816.72 276.611C816.746 276.877 816.661 277.15 816.71 277.422C816.731 277.539 816.885 277.387 816.889 277.315C816.904 277.062 816.993 276.783 817.059 276.542C817.075 276.47 817.083 276.397 817.083 276.323C817.319 276.305 817.625 276.196 817.876 276.089C817.886 276.17 817.9 276.257 817.918 276.349C817.961 276.621 817.991 276.896 818.009 277.172C818.031 277.425 818.122 277.829 818.065 278.083C818.03 278.239 818.214 278.16 818.247 278.074C818.392 277.705 818.361 277.21 818.394 276.811C818.418 276.563 818.419 276.313 818.396 276.064C818.391 275.99 818.391 275.915 818.396 275.841C819.2 275.44 819.974 274.867 820.706 274.247C820.723 274.277 820.74 274.308 820.756 274.339C820.869 274.563 820.982 274.779 821.08 275.015C821.122 275.111 821.263 274.984 821.238 274.899C821.173 274.666 821.095 274.437 821.004 274.216C820.982 274.162 820.963 274.105 820.941 274.046L821.072 273.933C821.162 274.129 821.272 274.32 821.343 274.495C821.531 274.961 821.702 275.452 821.96 275.871C822.008 275.949 822.135 275.809 822.115 275.733C821.982 275.22 821.92 274.693 821.761 274.189C821.704 274.007 821.627 273.752 821.532 273.523C821.702 273.369 821.87 273.216 822.034 273.064C822.182 272.928 822.325 272.785 822.468 272.641C822.885 272.276 823.284 271.883 823.663 271.464C823.691 271.431 823.716 271.393 823.736 271.353C823.845 271.376 823.964 271.375 824.063 271.397C824.312 271.452 824.554 271.552 824.801 271.625C824.868 271.645 824.999 271.476 824.912 271.426C824.653 271.283 824.305 270.998 823.98 270.94C823.995 270.923 824.011 270.903 824.026 270.885C824.062 270.884 824.098 270.881 824.134 270.875C824.312 270.848 824.495 270.932 824.673 270.961C824.708 270.966 824.782 270.873 824.733 270.854C824.575 270.792 824.419 270.702 824.256 270.655C824.703 270.514 825.201 270.478 825.595 270.183C825.66 270.137 825.692 269.977 825.579 270.024ZM823.781 270.666C823.746 270.669 823.698 270.721 823.713 270.759C823.609 270.524 820.033 272.951 819.791 273.153C819.003 273.808 818.077 274.498 817.404 275.353C817.398 275.213 817.402 275.074 817.415 274.935C817.422 274.922 817.43 274.912 817.437 274.9C818.599 273.285 819.942 272.11 821.614 271.309C822.193 271.032 822.777 270.776 823.362 270.519C823.836 270.312 823.902 270.424 823.781 270.666Z" fill="url(#paint57_radial_67_3634)"/>
<path d="M827.003 316.41C826.705 314.745 824.837 313.06 823.437 313.501C823.43 313.504 823.423 313.508 823.417 313.513C822.731 313.427 822.056 313.563 822 314.34C821.878 316.025 824.138 317.393 825.232 317.764C826.288 318.122 827.272 317.91 827.003 316.41Z" fill="url(#paint58_radial_67_3634)"/>
<path d="M853.146 287.656C851.12 288.643 848.883 290.835 848.652 293.622C848.585 293.488 848.506 293.363 848.417 293.25C848.445 292.511 848.48 291.781 848.66 291.051C848.682 290.96 848.571 291.018 848.554 291.071C848.361 291.693 848.236 292.342 848.181 293.002C847.774 292.653 847.254 292.554 846.666 292.587C846.248 292.549 845.827 292.582 845.417 292.686C845.331 292.243 845.263 291.802 845.264 291.295C845.264 290.573 845.389 289.189 845.821 288.613C845.887 288.526 845.798 288.479 845.738 288.539C845.164 289.104 845.017 290.308 844.908 291.138C844.867 291.473 844.81 292.226 844.891 292.851C844.253 293.091 843.633 293.465 843.018 293.897C842.203 294.468 841.429 295.118 840.703 295.84C840.661 295.79 840.612 295.74 840.57 295.684C840.432 295.509 840.293 295.34 840.162 295.157C840.034 294.977 839.891 294.814 839.734 294.671C839.594 294.543 839.427 294.451 839.303 294.302C839.25 294.239 839.126 294.369 839.172 294.439C839.262 294.576 839.38 294.666 839.484 294.788C839.648 294.978 839.801 295.182 839.941 295.398C840.075 295.607 840.214 295.81 840.356 296.016C840.384 296.058 840.408 296.095 840.432 296.127C840.358 296.205 840.289 296.288 840.217 296.368C840.169 296.318 840.123 296.268 840.08 296.215C839.959 296.066 839.849 295.909 839.707 295.79C839.663 295.753 839.56 295.871 839.604 295.919C839.738 296.064 839.834 296.251 839.943 296.423C839.972 296.47 840.005 296.519 840.04 296.565C839.755 296.889 839.477 297.222 839.218 297.579C838.7 297.346 837.975 297.408 837.532 297.43C836.363 297.487 835.442 297.854 834.419 298.48C834.378 298.507 834.363 298.611 834.43 298.579C835.538 298.049 836.518 297.792 837.722 297.839C838.112 297.855 838.499 297.93 838.874 298.064C838.857 298.089 838.839 298.113 838.823 298.137C838.137 299.181 837.546 300.496 837.35 301.847C836.746 301.999 836.078 302.415 835.695 302.796C835.306 303.184 834.956 303.625 834.652 304.109C834.41 304.492 834.306 305.211 834.025 305.522C833.996 305.555 833.991 305.631 834.047 305.604C834.462 305.402 834.783 304.409 835.056 304.033C835.692 303.156 836.441 302.711 837.295 302.367C837.282 302.553 837.278 302.739 837.282 302.926C837.288 303.266 837.357 303.6 837.485 303.904C837.312 303.986 837.138 304.177 837.042 304.299C836.821 304.581 836.656 304.916 836.44 305.204C836.367 305.299 836.468 305.364 836.535 305.288C836.701 305.096 836.847 304.879 837.001 304.671C837.09 304.552 837.187 304.442 837.291 304.341C837.387 304.247 837.504 304.213 837.609 304.148C837.755 304.392 837.938 304.6 838.149 304.761C838.011 304.859 837.899 305.002 837.827 305.175C837.798 305.247 837.763 305.317 837.722 305.381C837.698 305.419 837.651 305.467 837.677 305.52L837.677 305.524C837.685 305.54 837.709 305.541 837.722 305.538C837.817 305.515 837.884 305.382 837.938 305.294C838.04 305.123 838.166 305.011 838.294 304.869C838.877 305.261 839.625 305.409 840.286 305.412C841.539 305.418 842.946 305.252 844.257 304.795C844.279 305.001 844.366 305.194 844.453 305.384C844.582 305.665 844.661 305.972 844.85 306.206C844.9 306.269 845.033 306.147 845 306.074C844.882 305.814 844.853 305.519 844.807 305.232C844.781 305.071 844.717 304.917 844.677 304.758C844.668 304.72 844.66 304.683 844.652 304.647C846.328 303.974 847.8 302.785 848.515 300.811C848.897 299.757 849.096 298.624 849.144 297.48C849.216 297.43 849.291 297.388 849.369 297.354C849.483 297.304 849.604 297.281 849.72 297.243C849.781 297.223 849.877 297.049 849.764 297.069C849.548 297.107 849.334 297.119 849.153 297.239C849.162 296.868 849.156 296.498 849.134 296.128C849.307 295.924 849.559 295.797 849.782 295.692C849.939 295.618 850.09 295.525 850.243 295.443C850.323 295.4 850.404 295.362 850.487 295.328C850.424 295.356 851.034 295.118 850.736 295.297C850.719 295.306 850.715 295.346 850.74 295.333C850.817 295.299 850.891 295.255 850.961 295.202C850.979 295.19 851.006 295.148 850.979 295.128C850.6 294.846 849.944 295.265 849.578 295.437C849.413 295.515 849.253 295.609 849.101 295.718C849.07 295.379 849.028 295.043 848.973 294.71C848.96 294.63 848.944 294.557 848.928 294.482C849.276 293.124 849.491 291.835 850.212 290.646C850.99 289.364 852.086 288.658 853.161 287.814C853.222 287.764 853.255 287.603 853.146 287.656ZM848.087 300.433C847.132 303.988 843.517 304.494 840.852 304.77C839.44 304.916 837.964 304.409 837.785 302.551C837.806 302.572 837.829 302.59 837.851 302.609C838.424 303.417 840.017 303.526 840.722 303.573C841.959 303.653 843.171 302.789 844.197 302.056C845.181 301.353 846.616 300.418 847.252 299.233C847.675 298.446 847.839 297.596 848.013 296.69C848.147 295.992 848.118 295.192 848.21 294.476C848.281 294.714 848.335 294.947 848.379 295.144C848.761 296.884 848.538 298.752 848.087 300.433Z" fill="url(#paint59_radial_67_3634)"/>
<path d="M858.372 280.012C858.394 279.335 857.837 278.468 857.604 277.987C856.911 276.56 855.924 275.309 854.691 274.559C854.206 274.264 853.25 273.862 852.643 274.146C852.182 274.134 851.647 274.376 851.207 274.445C850.493 274.559 849.744 274.391 849.029 274.33C849.002 274.33 848.924 274.395 848.962 274.43C849.759 275.185 851.068 274.941 852.103 274.592C851.987 274.813 851.988 275.09 852.052 275.379C851.56 275.532 851.078 275.852 850.586 275.927C850.549 275.933 850.483 276.043 850.544 276.044C851.08 276.05 851.611 275.836 852.138 275.686C852.312 276.191 852.619 276.693 852.786 276.984C852.965 277.292 853.162 277.586 853.375 277.861C853.334 277.902 853.297 277.945 853.256 277.985C853.237 278.004 853.216 278.021 853.194 278.034C853.19 278.034 853.135 278.072 853.165 278.056C853.144 278.067 853.12 278.094 853.126 278.124C853.143 278.213 853.307 278.095 853.458 277.964C853.494 278.01 853.533 278.055 853.57 278.102C853.482 278.183 853.387 278.254 853.287 278.313C853.223 278.349 853.182 278.512 853.283 278.462C853.414 278.391 853.539 278.306 853.657 278.208C853.751 278.319 853.846 278.429 853.944 278.536C853.723 278.691 853.51 278.867 853.303 279.029C853.107 279.19 852.921 279.367 852.745 279.559C852.583 279.727 852.408 280.041 852.215 280.16C852.196 280.171 852.159 280.243 852.203 280.244C852.288 280.244 852.298 280.219 852.369 280.144C852.604 279.888 852.857 279.653 853.104 279.414C853.408 279.12 853.768 278.927 854.109 278.708C854.317 278.924 854.536 279.13 854.76 279.324C854.728 279.364 854.697 279.404 854.668 279.443C854.349 279.857 854.083 280.335 853.817 280.799C853.769 280.882 853.852 280.905 853.894 280.841C854.146 280.45 854.401 280.063 854.682 279.702C854.752 279.612 854.826 279.528 854.904 279.448C855.163 279.664 855.428 279.863 855.693 280.046C855.513 280.389 855.402 280.811 855.248 281.142C855.201 281.241 855.321 281.214 855.354 281.155C855.478 280.926 855.582 280.684 855.691 280.446C855.739 280.344 855.792 280.245 855.85 280.15C856.003 280.25 856.157 280.35 856.309 280.438C856.562 280.588 856.826 280.707 857.098 280.792C856.683 281.327 856.489 282.229 856.401 282.927C856.388 283.032 856.532 282.936 856.547 282.877C856.655 282.475 856.794 282.086 856.962 281.716C857.084 281.442 857.269 281.15 857.331 280.844C857.474 280.872 857.619 280.872 857.762 280.844C857.505 281.75 857.507 282.867 857.545 283.73C857.551 283.85 857.696 283.736 857.701 283.658C857.784 282.409 858.139 281.31 858.376 280.11C858.383 280.077 858.382 280.043 858.372 280.012ZM857.521 280.296C857.528 280.25 857.538 280.205 857.55 280.16C857.557 280.141 857.558 280.12 857.552 280.1C857.547 280.081 857.536 280.064 857.521 280.054C857.512 280.048 857.503 280.044 857.493 280.042C857.538 279.321 855.587 276.963 855.394 276.774C855.084 276.472 853.156 274.796 852.664 275.159C852.655 274.802 852.801 274.542 853.334 274.657C854.131 274.829 854.814 275.286 855.444 275.881C856.451 276.833 857.221 278.251 857.768 279.625C857.981 280.164 857.814 280.316 857.521 280.296Z" fill="url(#paint60_radial_67_3634)"/>
<path d="M844.039 275.42C842.888 274.904 841.77 274.333 840.611 273.879C840.67 273.6 840.522 273.309 840.302 273.045C840.375 273.019 840.442 272.995 840.502 272.981C841.382 272.737 842.286 272.612 843.147 272.271C843.203 272.248 843.265 272.082 843.171 272.111C842.419 272.341 841.633 272.414 840.867 272.556C840.58 272.609 840.295 272.676 840.009 272.741C839.781 272.538 839.544 272.351 839.299 272.181C839.409 272.084 839.511 271.975 839.581 271.919C839.879 271.679 840.203 271.48 840.46 271.172C840.518 271.103 840.468 271.029 840.404 271.095C840.016 271.497 839.507 271.693 839.081 272.038C839.003 271.996 838.924 271.959 838.843 271.927C838.859 271.901 838.874 271.877 838.891 271.852C838.999 271.693 839.113 271.54 839.215 271.376C839.284 271.265 839.168 271.234 839.112 271.318C838.984 271.509 838.841 271.684 838.709 271.87C838.607 271.833 838.502 271.801 838.397 271.776C838.119 271.63 837.83 271.519 837.534 271.442C837.546 271.065 837.487 270.657 837.473 270.33C837.438 269.573 837.526 268.775 837.355 268.039C837.337 267.963 837.232 268.061 837.241 268.122C837.338 268.798 837.228 269.517 837.187 270.193C837.164 270.577 837.175 270.969 837.164 271.357C836.952 271.316 836.738 271.288 836.527 271.27C836.48 270.974 836.308 270.692 836.218 270.416C836.187 270.324 836.052 270.444 836.073 270.522C836.111 270.676 836.159 270.825 836.208 270.974C836.238 271.065 836.262 271.16 836.286 271.255C835.882 271.232 835.477 271.266 835.079 271.355C834.996 271.282 834.915 271.208 834.83 271.138C834.513 270.871 834.003 270.634 833.83 270.192C833.795 270.101 833.664 270.22 833.685 270.298C833.798 270.722 834.218 271.081 834.494 271.351C834.544 271.401 834.594 271.457 834.645 271.517C834.537 271.571 834.436 271.641 834.343 271.727C834.151 271.661 833.942 271.634 833.751 271.59C833.329 271.49 832.908 271.453 832.491 271.313C832.45 271.299 832.372 271.396 832.422 271.416C832.736 271.546 833.059 271.648 833.385 271.722C833.645 271.785 833.912 271.911 834.179 271.971C834.051 272.331 834.348 272.73 834.735 273.067C834.687 273.089 834.638 273.11 834.591 273.135C834.413 273.228 834.198 273.299 834.066 273.481C834.015 273.551 834.066 273.605 834.129 273.567C834.384 273.406 834.668 273.327 834.948 273.24C835.005 273.283 835.062 273.325 835.119 273.365C834.775 273.534 834.433 273.718 834.092 273.871C833.379 274.192 832.576 274.732 831.833 274.914C831.778 274.928 831.704 275.072 831.796 275.059C832.371 274.976 832.951 274.622 833.504 274.411C834.162 274.162 834.823 273.899 835.465 273.589C835.546 273.639 835.622 273.68 835.69 273.715C836.112 273.934 836.551 274.103 837.001 274.219C836.951 274.398 836.911 274.583 836.872 274.767C836.76 275.292 836.642 275.814 836.581 276.349C836.567 276.478 836.75 276.37 836.765 276.288C836.89 275.598 837.124 274.954 837.315 274.295C837.733 274.382 838.156 274.428 838.58 274.435C838.644 274.568 838.729 274.69 838.794 274.817C838.825 274.88 838.941 274.767 838.918 274.706C838.885 274.614 838.852 274.524 838.818 274.435C838.851 274.435 838.885 274.435 838.918 274.435C838.962 274.435 839.016 274.435 839.072 274.435C839.127 274.497 839.184 274.555 839.232 274.612C839.406 274.815 839.585 275.01 839.768 275.203C839.835 275.274 839.987 275.119 839.927 275.036C839.788 274.841 839.653 274.641 839.521 274.438C839.76 274.433 840.013 274.407 840.217 274.321C840.658 274.439 841.103 274.542 841.533 274.686C842.343 274.959 843.133 275.327 843.948 275.573C844.005 275.592 844.107 275.45 844.039 275.42Z" fill="url(#paint61_radial_67_3634)"/>
<path d="M853.415 312.604C852.639 312.961 851.877 313.372 851.133 313.813C850.375 314.262 849.532 314.745 848.809 315.368C848.219 315.675 847.635 316.2 847.363 316.795C846.911 317.787 848.276 317.707 848.744 317.645C850.242 317.446 851.744 316.66 853.055 315.816C854.042 315.181 855.538 314.113 856.106 312.917C857.03 310.967 853.894 312.384 853.415 312.604Z" fill="url(#paint62_radial_67_3634)"/>
<path d="M820.992 290.596C820.024 290.903 818.823 291.228 817.822 291.186C817.119 291.156 816.463 291.07 815.764 291.095C815.731 290.183 815.587 289.307 815.293 288.536C815.56 288.445 815.822 288.419 816.098 288.38C816.43 288.333 816.765 288.195 817.09 288.104C817.155 288.086 817.243 287.909 817.134 287.93C816.774 288.001 816.413 288.093 816.051 288.139C815.761 288.176 815.473 288.171 815.217 288.354C815.2 288.313 815.182 288.273 815.165 288.231C815.248 288.216 815.333 288.206 815.418 288.182C815.552 288.146 815.68 288.086 815.8 288.005C815.879 287.95 815.868 287.811 815.766 287.874C815.604 287.97 815.425 288.019 815.245 288.015C815.188 288.014 815.131 288.022 815.076 288.04C815.021 287.933 814.957 287.833 814.885 287.741C814.956 287.742 815.027 287.736 815.097 287.724C815.433 287.658 815.748 287.383 816.051 287.212C816.515 286.949 817.027 286.522 817.23 285.938C817.257 285.863 817.16 285.893 817.139 285.927C816.773 286.534 815.593 287.102 814.984 287.038C814.61 286.998 814.32 287.066 814.081 287.331C813.907 287.36 813.735 287.467 813.578 287.68C813.167 288.233 812.9 288.856 812.715 289.518C811.582 291.898 811.17 295.346 811.553 297.777C811.649 298.389 811.91 299.704 812.602 299.728C812.869 299.949 813.305 300.109 813.425 300.168C813.82 300.37 814.206 300.597 814.581 300.848C815.136 301.208 815.333 301.751 815.724 302.287C815.767 302.347 815.865 302.237 815.848 302.176C815.745 301.739 815.595 301.321 815.402 300.93C815.236 300.6 814.723 300.38 814.453 300.219C814.063 299.994 813.661 299.8 813.25 299.638C813.227 299.628 813.174 299.613 813.107 299.593C813.554 299.344 813.904 298.796 814.181 298.232C814.338 298.293 814.498 298.349 814.65 298.411C814.999 298.552 815.263 298.803 815.583 299.009C815.644 299.047 815.759 298.904 815.69 298.85C815.383 298.615 815.153 298.352 814.813 298.172C814.652 298.086 814.491 298.001 814.328 297.923C814.443 297.665 814.544 297.415 814.632 297.199C814.665 297.119 814.697 297.035 814.729 296.95C814.93 297.006 815.132 297.059 815.335 297.11C815.944 297.266 816.58 297.5 817.193 297.586C817.272 297.597 817.401 297.412 817.287 297.382C816.969 297.297 816.671 297.088 816.36 296.968C816.085 296.862 815.798 296.796 815.518 296.709C815.334 296.652 815.119 296.549 814.903 296.475C815.177 295.673 815.391 294.842 815.54 293.994C815.578 293.958 815.646 293.867 815.581 293.844C815.576 293.841 815.571 293.837 815.566 293.832C815.642 293.375 815.696 292.912 815.729 292.447C815.899 292.453 816.069 292.457 816.239 292.478C816.565 292.52 816.884 292.627 817.212 292.639C817.274 292.639 817.382 292.483 817.288 292.471C816.973 292.428 816.671 292.286 816.359 292.215C816.158 292.172 815.953 292.152 815.749 292.155C815.758 291.982 815.764 291.809 815.766 291.637C815.881 291.659 816.015 291.655 816.188 291.67C816.743 291.719 817.313 291.819 817.87 291.806C818.844 291.785 820.077 291.184 820.967 290.754C821.018 290.725 821.084 290.566 820.992 290.596ZM814.979 288.868C814.387 290.463 813.629 291.876 813.3 293.606C813.01 295.139 813.215 297.009 813.512 298.528C813.106 299.013 812.645 299.168 812.304 298.24C812.064 297.586 812.037 296.82 812.034 296.095C812.054 296.092 812.073 296.081 812.087 296.063C812.087 296.063 812.09 296.063 812.091 296.06C812.239 296.063 812.387 296.043 812.531 295.999C812.563 295.991 812.593 295.973 812.619 295.947C812.644 295.921 812.663 295.887 812.674 295.85C812.677 295.841 812.679 295.832 812.68 295.822C812.68 295.813 812.679 295.803 812.676 295.794C812.673 295.785 812.669 295.777 812.663 295.77C812.658 295.763 812.651 295.757 812.644 295.753C812.645 295.752 812.646 295.75 812.646 295.748C812.457 295.684 812.218 295.741 812.046 295.599C812.041 295.596 812.036 295.594 812.031 295.592C812.031 295.338 812.035 295.073 812.043 294.803C812.191 294.764 812.336 294.706 812.473 294.628C812.556 294.584 812.619 294.379 812.478 294.435C812.342 294.494 812.199 294.528 812.054 294.534C812.086 293.654 812.173 292.778 812.314 291.913C812.319 291.963 812.397 291.91 812.407 291.873C812.655 290.821 812.963 289.79 813.329 288.788C813.853 287.329 814.592 287.974 815.024 288.807C815.005 288.823 814.99 288.844 814.979 288.868Z" fill="url(#paint63_radial_67_3634)"/>
<path d="M812.734 293.238C812.657 293.238 812.58 293.246 812.502 293.242C812.407 293.237 812.371 293.186 812.295 293.142C812.243 293.112 812.178 293.186 812.164 293.239C812.085 293.538 812.546 293.438 812.668 293.429C812.731 293.425 812.831 293.239 812.734 293.238Z" fill="url(#paint64_radial_67_3634)"/>
<path d="M831.48 315.407C831.435 314.606 830.367 314.094 829.938 314.853C829.763 315.161 829.841 315.451 830.027 315.656C830.152 315.912 830.341 316.116 830.567 316.237C830.919 316.42 831.321 316.156 831.444 315.732C831.465 315.659 831.477 315.582 831.479 315.505C831.503 315.468 831.515 315.425 831.48 315.407Z" fill="url(#paint65_radial_67_3634)"/>
<path d="M820.267 312.803C819.905 312.349 819.562 311.769 818.972 311.969C818.598 312.097 818.462 312.514 818.559 312.892C818.546 312.983 818.561 313.077 818.6 313.156C818.897 313.761 819.896 314.547 820.441 314.008C820.825 313.629 820.528 313.13 820.267 312.803Z" fill="url(#paint66_radial_67_3634)"/>
<path d="M854.183 301.777C853.964 301.795 853.753 301.982 853.598 302.158C853.436 302.343 853.289 302.576 853.266 302.851C853.261 302.916 853.293 303.01 853.349 303.031C853.547 303.1 853.727 303.043 853.9 302.912C854.043 302.802 854.308 302.51 854.273 302.264C854.309 302.184 854.336 302.099 854.356 302.011C854.39 301.854 854.313 301.766 854.183 301.777Z" fill="url(#paint67_radial_67_3634)"/>
<path d="M858.805 293.403C858.523 292.855 857.923 292.928 857.564 293.319C857.253 293.66 857.079 294.066 856.926 294.499C856.62 295.066 856.416 295.745 856.381 296.135C856.353 296.479 856.381 296.825 856.464 297.155C856.471 297.21 856.476 297.266 856.485 297.32C856.586 297.956 857.184 298.396 857.663 298.011C858.049 297.925 858.384 297.646 858.65 297.264C859.344 296.253 859.357 294.487 858.805 293.403Z" fill="url(#paint68_radial_67_3634)"/>
<path d="M857.623 289.718C857.57 289.625 857.482 289.627 857.399 289.649C857.261 289.685 857.115 289.837 857.126 290.018C857.112 290.075 857.101 290.133 857.095 290.192C857.084 290.284 857.165 290.323 857.226 290.311C857.269 290.3 857.31 290.277 857.346 290.245C857.381 290.214 857.411 290.173 857.433 290.127C857.439 290.115 857.445 290.101 857.451 290.088C857.468 290.079 857.485 290.068 857.502 290.056C857.587 289.992 857.693 289.841 857.623 289.718Z" fill="url(#paint69_radial_67_3634)"/>
<path d="M847.486 276.158C847.26 275.852 846.841 275.793 846.588 276.085C846.546 276.079 846.485 276.15 846.494 276.2C846.494 276.205 846.497 276.211 846.498 276.217C846.431 276.355 846.425 276.512 846.563 276.615C846.611 276.65 846.661 276.678 846.714 276.698C846.773 276.776 846.845 276.838 846.924 276.882C847.004 276.926 847.09 276.949 847.178 276.951C847.521 276.957 847.716 276.468 847.486 276.158Z" fill="url(#paint70_radial_67_3634)"/>
<g style="mix-blend-mode:color-dodge" opacity="0.6">
<path d="M837.161 266.25C833.745 265.266 830.222 267.152 827.242 269.072C827.18 269.113 827.159 269.253 827.257 269.215C828.815 268.602 830.3 267.729 831.87 267.123C833.618 266.446 835.285 266.176 837.099 266.384C837.152 266.387 837.234 266.271 837.161 266.25Z" fill="#4B5DA7"/>
</g>
</g>
<defs>
<radialGradient id="paint0_radial_67_3634" cx="0" cy="0" r="1" gradientUnits="userSpaceOnUse" gradientTransform="translate(655.551 1735.53) rotate(53.5177) scale(674.658 1125.75)">
<stop stop-color="#DA84B6"/>
<stop offset="0.22" stop-color="#A9678D"/>
<stop offset="1" stop-color="#010101"/>
</radialGradient>
<radialGradient id="paint1_radial_67_3634" cx="0" cy="0" r="1" gradientUnits="userSpaceOnUse" gradientTransform="translate(569.11 201.506) rotate(-22.9898) scale(320.813 361.817)">
<stop offset="0.02" stop-color="#4BADE2"/>
<stop offset="0.29" stop-color="#3662AC"/>
<stop offset="0.47" stop-color="#335499"/>
<stop offset="0.82" stop-color="#2A2F6A"/>
<stop offset="0.85" stop-color="#292B64"/>
</radialGradient>
<radialGradient id="paint2_radial_67_3634" cx="0" cy="0" r="1" gradientUnits="userSpaceOnUse" gradientTransform="translate(1.23721e+06 1.22077e+06) rotate(53.5177) scale(518747 193829)">
<stop offset="0.02" stop-color="#4BADE2"/>
<stop offset="0.29" stop-color="#3662AC"/>
<stop offset="0.47" stop-color="#335499"/>
<stop offset="0.82" stop-color="#2A2F6A"/>
<stop offset="0.85" stop-color="#292B64"/>
</radialGradient>
<radialGradient id="paint3_radial_67_3634" cx="0" cy="0" r="1" gradientUnits="userSpaceOnUse" gradientTransform="translate(2.4708e+06 1.62264e+06) rotate(53.5177) scale(763460 728480)">
<stop offset="0.02" stop-color="#4BADE2"/>
<stop offset="0.29" stop-color="#3662AC"/>
<stop offset="0.47" stop-color="#335499"/>
<stop offset="0.82" stop-color="#2A2F6A"/>
<stop offset="0.85" stop-color="#292B64"/>
</radialGradient>
<radialGradient id="paint4_radial_67_3634" cx="0" cy="0" r="1" gradientUnits="userSpaceOnUse" gradientTransform="translate(1.50438e+06 1.42739e+06) rotate(53.5177) scale(595245 263872)">
<stop offset="0.02" stop-color="#4BADE2"/>
<stop offset="0.29" stop-color="#3662AC"/>
<stop offset="0.47" stop-color="#335499"/>
<stop offset="0.82" stop-color="#2A2F6A"/>
<stop offset="0.85" stop-color="#292B64"/>
</radialGradient>
<radialGradient id="paint5_radial_67_3634" cx="0" cy="0" r="1" gradientUnits="userSpaceOnUse" gradientTransform="translate(905.789 577.124) rotate(-22.9898) scale(246.579 278.095)">
<stop offset="0.02" stop-color="#44B9EB"/>
<stop offset="0.29" stop-color="#3867B0"/>
<stop offset="0.85" stop-color="#354395"/>
</radialGradient>
<linearGradient id="paint6_linear_67_3634" x1="663.135" y1="708.821" x2="336.716" y2="239.798" gradientUnits="userSpaceOnUse">
<stop stop-color="#446FB5"/>
<stop offset="0.13" stop-color="#4266AF"/>
<stop offset="0.69" stop-color="#3C4396"/>
<stop offset="0.99" stop-color="#39358C"/>
</linearGradient>
<linearGradient id="paint7_linear_67_3634" x1="867335" y1="1.07247e+06" x2="1.07373e+06" y2="919848" gradientUnits="userSpaceOnUse">
<stop stop-color="#446FB5"/>
<stop offset="0.13" stop-color="#4266AF"/>
<stop offset="0.69" stop-color="#3C4396"/>
<stop offset="0.99" stop-color="#39358C"/>
</linearGradient>
<linearGradient id="paint8_linear_67_3634" x1="452828" y1="490551" x2="504328" y2="452468" gradientUnits="userSpaceOnUse">
<stop stop-color="#446FB5"/>
<stop offset="0.13" stop-color="#4266AF"/>
<stop offset="0.69" stop-color="#3C4396"/>
<stop offset="0.99" stop-color="#39358C"/>
</linearGradient>
<linearGradient id="paint9_linear_67_3634" x1="550.552" y1="757.441" x2="207.763" y2="264.897" gradientUnits="userSpaceOnUse">
<stop offset="0.01" stop-color="#39358C"/>
<stop offset="0.31" stop-color="#3C4396"/>
<stop offset="0.87" stop-color="#4266AF"/>
<stop offset="1" stop-color="#446FB5"/>
</linearGradient>
<linearGradient id="paint10_linear_67_3634" x1="1.10365e+06" y1="1.23449e+06" x2="1.47326e+06" y2="961175" gradientUnits="userSpaceOnUse">
<stop offset="0.01" stop-color="#39358C"/>
<stop offset="0.31" stop-color="#3C4396"/>
<stop offset="0.87" stop-color="#4266AF"/>
<stop offset="1" stop-color="#446FB5"/>
</linearGradient>
<linearGradient id="paint11_linear_67_3634" x1="1.05168e+06" y1="1.72056e+06" x2="2.07824e+06" y2="961439" gradientUnits="userSpaceOnUse">
<stop offset="0.01" stop-color="#39358C"/>
<stop offset="0.31" stop-color="#3C4396"/>
<stop offset="0.87" stop-color="#4266AF"/>
<stop offset="1" stop-color="#446FB5"/>
</linearGradient>
<linearGradient id="paint12_linear_67_3634" x1="699444" y1="709893" x2="814435" y2="624859" gradientUnits="userSpaceOnUse">
<stop offset="0.01" stop-color="#39358C"/>
<stop offset="0.31" stop-color="#3C4396"/>
<stop offset="0.87" stop-color="#4266AF"/>
<stop offset="1" stop-color="#446FB5"/>
</linearGradient>
<linearGradient id="paint13_linear_67_3634" x1="853750" y1="952793" x2="1.08523e+06" y2="781614" gradientUnits="userSpaceOnUse">
<stop offset="0.01" stop-color="#39358C"/>
<stop offset="0.31" stop-color="#3C4396"/>
<stop offset="0.87" stop-color="#4266AF"/>
<stop offset="1" stop-color="#446FB5"/>
</linearGradient>
<linearGradient id="paint14_linear_67_3634" x1="377010" y1="344577" x2="419688" y2="313017" gradientUnits="userSpaceOnUse">
<stop offset="0.01" stop-color="#39358C"/>
<stop offset="0.31" stop-color="#3C4396"/>
<stop offset="0.87" stop-color="#4266AF"/>
<stop offset="1" stop-color="#446FB5"/>
</linearGradient>
<linearGradient id="paint15_linear_67_3634" x1="1.11414e+06" y1="1.06405e+06" x2="1.46285e+06" y2="806188" gradientUnits="userSpaceOnUse">
<stop offset="0.01" stop-color="#39358C"/>
<stop offset="0.31" stop-color="#3C4396"/>
<stop offset="0.87" stop-color="#4266AF"/>
<stop offset="1" stop-color="#446FB5"/>
</linearGradient>
<radialGradient id="paint16_radial_67_3634" cx="0" cy="0" r="1" gradientUnits="userSpaceOnUse" gradientTransform="translate(342.173 345.154) rotate(-22.9898) scale(304.148 343.022)">
<stop offset="0.01" stop-color="#58B6E8"/>
<stop offset="0.66" stop-color="#4D8CCA"/>
<stop offset="1" stop-color="#396DB4"/>
</radialGradient>
<radialGradient id="paint17_radial_67_3634" cx="0" cy="0" r="1" gradientUnits="userSpaceOnUse" gradientTransform="translate(408892 361060) rotate(53.5177) scale(20652.7 14605.3)">
<stop offset="0.01" stop-color="#58B6E8"/>
<stop offset="0.66" stop-color="#4D8CCA"/>
<stop offset="1" stop-color="#396DB4"/>
</radialGradient>
<radialGradient id="paint18_radial_67_3634" cx="0" cy="0" r="1" gradientUnits="userSpaceOnUse" gradientTransform="translate(967731 811764) rotate(53.5177) scale(115731 84269.8)">
<stop offset="0.01" stop-color="#58B6E8"/>
<stop offset="0.66" stop-color="#4D8CCA"/>
<stop offset="1" stop-color="#396DB4"/>
</radialGradient>
<linearGradient id="paint19_linear_67_3634" x1="324.887" y1="740.345" x2="44.7921" y2="337.884" gradientUnits="userSpaceOnUse">
<stop stop-color="#3153A0"/>
<stop offset="0.99" stop-color="#58B6E8"/>
</linearGradient>
<linearGradient id="paint20_linear_67_3634" x1="618.206" y1="804.883" x2="430.262" y2="534.832" gradientUnits="userSpaceOnUse">
<stop offset="0.01" stop-color="#375CA7"/>
<stop offset="1" stop-color="#3153A0"/>
</linearGradient>
<radialGradient id="paint21_radial_67_3634" cx="0" cy="0" r="1" gradientUnits="userSpaceOnUse" gradientTransform="translate(934048 -476156) rotate(-22.9898) scale(390144 133614)">
<stop offset="0.02" stop-color="#4BADE2"/>
<stop offset="0.29" stop-color="#3662AC"/>
<stop offset="0.47" stop-color="#335499"/>
<stop offset="0.82" stop-color="#2A2F6A"/>
<stop offset="0.85" stop-color="#292B64"/>
</radialGradient>
<radialGradient id="paint22_radial_67_3634" cx="0" cy="0" r="1" gradientUnits="userSpaceOnUse" gradientTransform="translate(463151 -222533) rotate(-22.9898) scale(189277 44812.7)">
<stop offset="0.02" stop-color="#4BADE2"/>
<stop offset="0.29" stop-color="#3662AC"/>
<stop offset="0.47" stop-color="#335499"/>
<stop offset="0.82" stop-color="#2A2F6A"/>
<stop offset="0.85" stop-color="#292B64"/>
</radialGradient>
<radialGradient id="paint23_radial_67_3634" cx="0" cy="0" r="1" gradientUnits="userSpaceOnUse" gradientTransform="translate(661363 -398019) rotate(-22.9898) scale(295467 195693)">
<stop offset="0.02" stop-color="#4BADE2"/>
<stop offset="0.29" stop-color="#3662AC"/>
<stop offset="0.47" stop-color="#335499"/>
<stop offset="0.82" stop-color="#2A2F6A"/>
<stop offset="0.85" stop-color="#292B64"/>
</radialGradient>
<linearGradient id="paint24_linear_67_3634" x1="232647" y1="255204" x2="242612" y2="247835" gradientUnits="userSpaceOnUse">
<stop stop-color="#446FB5"/>
<stop offset="0.13" stop-color="#4266AF"/>
<stop offset="0.69" stop-color="#3C4396"/>
<stop offset="0.99" stop-color="#39358C"/>
</linearGradient>
<linearGradient id="paint25_linear_67_3634" x1="300570" y1="385328" x2="371755" y2="332688" gradientUnits="userSpaceOnUse">
<stop stop-color="#446FB5"/>
<stop offset="0.13" stop-color="#4266AF"/>
<stop offset="0.69" stop-color="#3C4396"/>
<stop offset="0.99" stop-color="#39358C"/>
</linearGradient>
<radialGradient id="paint26_radial_67_3634" cx="0" cy="0" r="1" gradientUnits="userSpaceOnUse" gradientTransform="translate(531192 -207251) rotate(-22.9898) scale(20592.8 14958.5)">
<stop offset="0.01" stop-color="#58B6E8"/>
<stop offset="0.66" stop-color="#4D8CCA"/>
<stop offset="1" stop-color="#396DB4"/>
</radialGradient>
<radialGradient id="paint27_radial_67_3634" cx="0" cy="0" r="1" gradientUnits="userSpaceOnUse" gradientTransform="translate(307905 -138189) rotate(-22.9898) scale(3020.93 662.306)">
<stop offset="0.01" stop-color="#58B6E8"/>
<stop offset="0.66" stop-color="#4D8CCA"/>
<stop offset="1" stop-color="#396DB4"/>
</radialGradient>
<radialGradient id="paint28_radial_67_3634" cx="0" cy="0" r="1" gradientUnits="userSpaceOnUse" gradientTransform="translate(-119086 -203620) rotate(-121.121) scale(64832.3 82083.6)">
<stop offset="0.02" stop-color="#4BADE2"/>
<stop offset="0.29" stop-color="#3662AC"/>
<stop offset="0.47" stop-color="#335499"/>
<stop offset="0.82" stop-color="#2A2F6A"/>
<stop offset="0.85" stop-color="#292B64"/>
</radialGradient>
<linearGradient id="paint29_linear_67_3634" x1="15800.3" y1="-225239" x2="6542.24" y2="-226764" gradientUnits="userSpaceOnUse">
<stop stop-color="#446FB5"/>
<stop offset="0.13" stop-color="#4266AF"/>
<stop offset="0.69" stop-color="#3C4396"/>
<stop offset="0.99" stop-color="#39358C"/>
</linearGradient>
<radialGradient id="paint30_radial_67_3634" cx="0" cy="0" r="1" gradientUnits="userSpaceOnUse" gradientTransform="translate(-49523.2 -108525) rotate(-121.121) scale(863.344 1308.91)">
<stop offset="0.01" stop-color="#58B6E8"/>
<stop offset="0.66" stop-color="#4D8CCA"/>
<stop offset="1" stop-color="#396DB4"/>
</radialGradient>
<radialGradient id="paint31_radial_67_3634" cx="0" cy="0" r="1" gradientUnits="userSpaceOnUse" gradientTransform="translate(-182082 -354425) rotate(-114.38) scale(136374 79449)">
<stop offset="0.02" stop-color="#4BADE2"/>
<stop offset="0.29" stop-color="#3662AC"/>
<stop offset="0.47" stop-color="#335499"/>
<stop offset="0.82" stop-color="#2A2F6A"/>
<stop offset="0.85" stop-color="#292B64"/>
</radialGradient>
<linearGradient id="paint32_linear_67_3634" x1="58352.2" y1="-421830" x2="69223.8" y2="-418762" gradientUnits="userSpaceOnUse">
<stop stop-color="#446FB5"/>
<stop offset="0.13" stop-color="#4266AF"/>
<stop offset="0.69" stop-color="#3C4396"/>
<stop offset="0.99" stop-color="#39358C"/>
</linearGradient>
<radialGradient id="paint33_radial_67_3634" cx="0" cy="0" r="1" gradientUnits="userSpaceOnUse" gradientTransform="translate(-129506 -230457) rotate(-114.38) scale(2206.4 1271.17)">
<stop offset="0.01" stop-color="#58B6E8"/>
<stop offset="0.66" stop-color="#4D8CCA"/>
<stop offset="1" stop-color="#396DB4"/>
</radialGradient>
<radialGradient id="paint34_radial_67_3634" cx="0" cy="0" r="1" gradientUnits="userSpaceOnUse" gradientTransform="translate(524009 -247439) rotate(-22.9898) scale(9284.04 2450.99)">
<stop offset="0.01" stop-color="#58B6E8"/>
<stop offset="0.66" stop-color="#4D8CCA"/>
<stop offset="1" stop-color="#396DB4"/>
</radialGradient>
<linearGradient id="paint35_linear_67_3634" x1="525934" y1="460411" x2="591420" y2="411985" gradientUnits="userSpaceOnUse">
<stop stop-color="#446FB5"/>
<stop offset="0.13" stop-color="#4266AF"/>
<stop offset="0.69" stop-color="#3C4396"/>
<stop offset="0.99" stop-color="#39358C"/>
</linearGradient>
<radialGradient id="paint36_radial_67_3634" cx="0" cy="0" r="1" gradientUnits="userSpaceOnUse" gradientTransform="translate(192110 -95160.2) rotate(-22.9898) scale(33265.6 17568.3)">
<stop offset="0.02" stop-color="#4BADE2"/>
<stop offset="0.29" stop-color="#3662AC"/>
<stop offset="0.47" stop-color="#335499"/>
<stop offset="0.82" stop-color="#2A2F6A"/>
<stop offset="0.85" stop-color="#292B64"/>
</radialGradient>
<radialGradient id="paint37_radial_67_3634" cx="0" cy="0" r="1" gradientUnits="userSpaceOnUse" gradientTransform="translate(125085 -55992.3) rotate(-22.9903) scale(13314.8 6460.86)">
<stop offset="0.02" stop-color="#4BADE2"/>
<stop offset="0.29" stop-color="#3662AC"/>
<stop offset="0.47" stop-color="#335499"/>
<stop offset="0.82" stop-color="#2A2F6A"/>
<stop offset="0.85" stop-color="#292B64"/>
</radialGradient>
<radialGradient id="paint38_radial_67_3634" cx="0" cy="0" r="1" gradientUnits="userSpaceOnUse" gradientTransform="translate(350850 -162556) rotate(-22.9899) scale(94367.4 23560.6)">
<stop offset="0.02" stop-color="#4BADE2"/>
<stop offset="0.29" stop-color="#3662AC"/>
<stop offset="0.47" stop-color="#335499"/>
<stop offset="0.82" stop-color="#2A2F6A"/>
<stop offset="0.85" stop-color="#292B64"/>
</radialGradient>
<radialGradient id="paint39_radial_67_3634" cx="0" cy="0" r="1" gradientUnits="userSpaceOnUse" gradientTransform="translate(330.99 255.159) rotate(-22.9896) scale(402.484 405.841)">
<stop offset="0.02" stop-color="#4BADE2"/>
<stop offset="0.45" stop-color="#417CBF"/>
<stop offset="0.85" stop-color="#2E4B9B"/>
</radialGradient>
<radialGradient id="paint40_radial_67_3634" cx="0" cy="0" r="1" gradientUnits="userSpaceOnUse" gradientTransform="translate(19707.9 37955) rotate(53.5177) scale(6033.32 27675)">
<stop offset="0.02" stop-color="#4BADE2"/>
<stop offset="0.45" stop-color="#417CBF"/>
<stop offset="0.85" stop-color="#2E4B9B"/>
</radialGradient>
<radialGradient id="paint41_radial_67_3634" cx="0" cy="0" r="1" gradientUnits="userSpaceOnUse" gradientTransform="translate(6172.98 11057.5) rotate(53.5177) scale(601.362 2055.09)">
<stop offset="0.02" stop-color="#4BADE2"/>
<stop offset="0.45" stop-color="#417CBF"/>
<stop offset="0.85" stop-color="#2E4B9B"/>
</radialGradient>
<radialGradient id="paint42_radial_67_3634" cx="0" cy="0" r="1" gradientUnits="userSpaceOnUse" gradientTransform="translate(68688 15422.9) rotate(53.5177) scale(11204 41427.1)">
<stop offset="0.02" stop-color="#4BADE2"/>
<stop offset="0.45" stop-color="#417CBF"/>
<stop offset="0.85" stop-color="#2E4B9B"/>
</radialGradient>
<radialGradient id="paint43_radial_67_3634" cx="0" cy="0" r="1" gradientUnits="userSpaceOnUse" gradientTransform="translate(24949.8 17724.6) rotate(53.5177) scale(4209.23 6160.81)">
<stop offset="0.02" stop-color="#4BADE2"/>
<stop offset="0.45" stop-color="#417CBF"/>
<stop offset="0.85" stop-color="#2E4B9B"/>
</radialGradient>
<radialGradient id="paint44_radial_67_3634" cx="0" cy="0" r="1" gradientUnits="userSpaceOnUse" gradientTransform="translate(68637.8 32125.4) rotate(53.5177) scale(23698.8 36234.9)">
<stop offset="0.02" stop-color="#4BADE2"/>
<stop offset="0.45" stop-color="#417CBF"/>
<stop offset="0.85" stop-color="#2E4B9B"/>
</radialGradient>
<radialGradient id="paint45_radial_67_3634" cx="0" cy="0" r="1" gradientUnits="userSpaceOnUse" gradientTransform="translate(24831.9 4956.81) rotate(53.5177) scale(1444.22 4244.08)">
<stop offset="0.02" stop-color="#4BADE2"/>
<stop offset="0.45" stop-color="#417CBF"/>
<stop offset="0.85" stop-color="#2E4B9B"/>
</radialGradient>
<radialGradient id="paint46_radial_67_3634" cx="0" cy="0" r="1" gradientUnits="userSpaceOnUse" gradientTransform="translate(77095.9 98919) rotate(53.5177) scale(51747.2 15073.1)">
<stop offset="0.02" stop-color="#4BADE2"/>
<stop offset="0.45" stop-color="#417CBF"/>
<stop offset="0.85" stop-color="#2E4B9B"/>
</radialGradient>
<radialGradient id="paint47_radial_67_3634" cx="0" cy="0" r="1" gradientUnits="userSpaceOnUse" gradientTransform="translate(97811.9 108093) rotate(53.5177) scale(75752.5 46474.2)">
<stop offset="0.02" stop-color="#4BADE2"/>
<stop offset="0.45" stop-color="#417CBF"/>
<stop offset="0.85" stop-color="#2E4B9B"/>
</radialGradient>
<radialGradient id="paint48_radial_67_3634" cx="0" cy="0" r="1" gradientUnits="userSpaceOnUse" gradientTransform="translate(68592.1 78930.3) rotate(53.5177) scale(62457.3 14361.6)">
<stop offset="0.02" stop-color="#4BADE2"/>
<stop offset="0.45" stop-color="#417CBF"/>
<stop offset="0.85" stop-color="#2E4B9B"/>
</radialGradient>
<radialGradient id="paint49_radial_67_3634" cx="0" cy="0" r="1" gradientUnits="userSpaceOnUse" gradientTransform="translate(47324.8 57517.9) rotate(53.5177) scale(30969.3 5734.7)">
<stop offset="0.02" stop-color="#4BADE2"/>
<stop offset="0.45" stop-color="#417CBF"/>
<stop offset="0.85" stop-color="#2E4B9B"/>
</radialGradient>
<radialGradient id="paint50_radial_67_3634" cx="0" cy="0" r="1" gradientUnits="userSpaceOnUse" gradientTransform="translate(505.435 454.229) rotate(25.7681) scale(547.322 375.076)">
<stop stop-color="#3056A3"/>
<stop offset="0.15" stop-color="#25427D"/>
<stop offset="0.34" stop-color="#182B51"/>
<stop offset="0.53" stop-color="#0E192E"/>
<stop offset="0.71" stop-color="#070C15"/>
<stop offset="0.87" stop-color="#030406"/>
<stop offset="1" stop-color="#010101"/>
</radialGradient>
<radialGradient id="paint51_radial_67_3634" cx="0" cy="0" r="1" gradientUnits="userSpaceOnUse" gradientTransform="translate(534.986 465.241) rotate(25.8136) scale(364.545 203.186)">
<stop stop-color="#4489C9"/>
<stop offset="0.07" stop-color="#3D7AB3"/>
<stop offset="0.24" stop-color="#2B557D"/>
<stop offset="0.42" stop-color="#1C3751"/>
<stop offset="0.58" stop-color="#10202E"/>
<stop offset="0.74" stop-color="#080F15"/>
<stop offset="0.88" stop-color="#030506"/>
<stop offset="1" stop-color="#010101"/>
</radialGradient>
<radialGradient id="paint52_radial_67_3634" cx="0" cy="0" r="1" gradientUnits="userSpaceOnUse" gradientTransform="translate(46.3019 278.595) rotate(3.15704) scale(70.4837 5.39025)">
<stop stop-color="white"/>
<stop offset="1" stop-color="#010101"/>
</radialGradient>
<radialGradient id="paint53_radial_67_3634" cx="0" cy="0" r="1" gradientUnits="userSpaceOnUse" gradientTransform="translate(138546 -2.16641e+06) rotate(-86.843) scale(63515.1 140.583)">
<stop stop-color="white"/>
<stop offset="1" stop-color="#010101"/>
</radialGradient>
<radialGradient id="paint54_radial_67_3634" cx="0" cy="0" r="1" gradientUnits="userSpaceOnUse" gradientTransform="translate(47.1518 279.286) rotate(89.6029) scale(80.0472 5.31512)">
<stop stop-color="white"/>
<stop offset="1" stop-color="#010101"/>
</radialGradient>
<radialGradient id="paint55_radial_67_3634" cx="0" cy="0" r="1" gradientUnits="userSpaceOnUse" gradientTransform="translate(1.90956e+06 -61906.1) rotate(-2.41788) scale(55909 136.61)">
<stop stop-color="white"/>
<stop offset="1" stop-color="#010101"/>
</radialGradient>
<radialGradient id="paint56_radial_67_3634" cx="0" cy="0" r="1" gradientUnits="userSpaceOnUse" gradientTransform="translate(816.284 257.914) scale(58.3854 70.0802)">
<stop offset="0.41" stop-color="#6488AA"/>
<stop offset="0.91" stop-color="#A06E7F"/>
</radialGradient>
<radialGradient id="paint57_radial_67_3634" cx="0" cy="0" r="1" gradientUnits="userSpaceOnUse" gradientTransform="translate(865.192 292.065) scale(76.9358 92.3463)">
<stop offset="0.41" stop-color="#33495D"/>
<stop offset="0.91" stop-color="#A06E7F"/>
</radialGradient>
<radialGradient id="paint58_radial_67_3634" cx="0" cy="0" r="1" gradientUnits="userSpaceOnUse" gradientTransform="translate(26704.5 -28287.7) scale(18366.4 16303.7)">
<stop offset="0.41" stop-color="#33495D"/>
<stop offset="0.91" stop-color="#A06E7F"/>
</radialGradient>
<radialGradient id="paint59_radial_67_3634" cx="0" cy="0" r="1" gradientUnits="userSpaceOnUse" gradientTransform="translate(99253.5 -118184) scale(69839.7 67531.4)">
<stop offset="0.41" stop-color="#33495D"/>
<stop offset="0.91" stop-color="#A06E7F"/>
</radialGradient>
<radialGradient id="paint60_radial_67_3634" cx="0" cy="0" r="1" gradientUnits="userSpaceOnUse" gradientTransform="translate(49147.2 -61793.1) scale(34273.4 35380.1)">
<stop offset="0.41" stop-color="#33495D"/>
<stop offset="0.91" stop-color="#A06E7F"/>
</radialGradient>
<radialGradient id="paint61_radial_67_3634" cx="0" cy="0" r="1" gradientUnits="userSpaceOnUse" gradientTransform="translate(63887 -53281.4) scale(44745.3 30524.8)">
<stop offset="0.41" stop-color="#33495D"/>
<stop offset="0.91" stop-color="#A06E7F"/>
</radialGradient>
<radialGradient id="paint62_radial_67_3634" cx="0" cy="0" r="1" gradientUnits="userSpaceOnUse" gradientTransform="translate(46965.9 -36525.4) scale(32728.3 20999.5)">
<stop offset="0.41" stop-color="#33495D"/>
<stop offset="0.91" stop-color="#A06E7F"/>
</radialGradient>
<radialGradient id="paint63_radial_67_3634" cx="0" cy="0" r="1" gradientUnits="userSpaceOnUse" gradientTransform="translate(50113.8 -104376) scale(34985.3 59659.5)">
<stop offset="0.41" stop-color="#33495D"/>
<stop offset="0.91" stop-color="#A06E7F"/>
</radialGradient>
<radialGradient id="paint64_radial_67_3634" cx="0" cy="0" r="1" gradientUnits="userSpaceOnUse" gradientTransform="translate(3985.84 -1729.37) scale(2251.84 1152.64)">
<stop offset="0.41" stop-color="#33495D"/>
<stop offset="0.91" stop-color="#A06E7F"/>
</radialGradient>
<radialGradient id="paint65_radial_67_3634" cx="0" cy="0" r="1" gradientUnits="userSpaceOnUse" gradientTransform="translate(9342.2 -11256.7) scale(6040.27 6595.81)">
<stop offset="0.41" stop-color="#33495D"/>
<stop offset="0.91" stop-color="#A06E7F"/>
</radialGradient>
<radialGradient id="paint66_radial_67_3634" cx="0" cy="0" r="1" gradientUnits="userSpaceOnUse" gradientTransform="translate(11556.4 -14097.1) scale(7619.78 8213.98)">
<stop offset="0.41" stop-color="#33495D"/>
<stop offset="0.91" stop-color="#A06E7F"/>
</radialGradient>
<radialGradient id="paint67_radial_67_3634" cx="0" cy="0" r="1" gradientUnits="userSpaceOnUse" gradientTransform="translate(6479.66 -7889.09) scale(3992.38 4668.81)">
<stop offset="0.41" stop-color="#33495D"/>
<stop offset="0.91" stop-color="#A06E7F"/>
</radialGradient>
<radialGradient id="paint68_radial_67_3634" cx="0" cy="0" r="1" gradientUnits="userSpaceOnUse" gradientTransform="translate(15334.7 -32523.5) scale(10274 18706.3)">
<stop offset="0.41" stop-color="#33495D"/>
<stop offset="0.91" stop-color="#A06E7F"/>
</radialGradient>
<radialGradient id="paint69_radial_67_3634" cx="0" cy="0" r="1" gradientUnits="userSpaceOnUse" gradientTransform="translate(3684.94 -4025.36) scale(2007.25 2460.42)">
<stop offset="0.41" stop-color="#33495D"/>
<stop offset="0.91" stop-color="#A06E7F"/>
</radialGradient>
<radialGradient id="paint70_radial_67_3634" cx="0" cy="0" r="1" gradientUnits="userSpaceOnUse" gradientTransform="translate(6654.14 -6463.76) scale(4121.62 3842.26)">
<stop offset="0.41" stop-color="#33495D"/>
<stop offset="0.91" stop-color="#A06E7F"/>
</radialGradient>
<clipPath id="clip0_67_3634">
<rect width="969.279" height="1026.94" fill="white" transform="translate(627.7 -211) rotate(53.5177)"/>
</clipPath>
<clipPath id="clip1_67_3634">
<rect width="315.958" height="226.263" fill="white" transform="translate(195.513 177.066) rotate(93.157)"/>
</clipPath>
</defs>
</svg>
